<?xml version="1.0" encoding="UTF-8" standalone="no"?>
<svg width="32" height="32" viewBox="0 0 32 32" xmlns="http://www.w3.org/2000/svg">
  <defs>
    <linearGradient id="terraGradient" x1="0%" y1="0%" x2="100%" y2="100%">
      <stop offset="0%" stop-color="#4f46e5" />
      <stop offset="100%" stop-color="#7c3aed" />
    </linearGradient>
  </defs>
  <circle cx="16" cy="16" r="14" fill="url(#terraGradient)" stroke="white" stroke-width="1.5" />
  <g transform="translate(8, 8)" fill="white">
    <path d="M8,0 C3.6,0 0,3.6 0,8 C0,12.4 8,16 8,16 C8,16 16,12.4 16,8 C16,3.6 12.4,0 8,0 Z M8,10 C6.9,10 6,9.1 6,8 C6,6.9 6.9,6 8,6 C9.1,6 10,6.9 10,8 C10,9.1 9.1,10 8,10 Z" />
  </g>
</svg>